<?xml version="1.0" encoding="UTF-8"?>
<svg id="Calque_1" data-name="Calque 1" xmlns="http://www.w3.org/2000/svg" viewBox="0 0 801.68 220.83">
  <defs>
    <style>
      .cls-1 {
        fill: none;
        stroke: #fff;
        stroke-miterlimit: 10;
        stroke-width: 7px;
      }
    </style>
  </defs>
  <path class="cls-1" d="M81.4,4.03c23.66-4.21,30.79,17.65,67,22,36.58,4.39,42.84-17.19,76-12,37.68,5.9,42.7,33.19,73,31,28.15-2.03,33.4-26.85,57.84-24.33,25.11,2.58,28.63,29.7,52.5,30.02,19.59.26,24.19-18.54,49.66-20.69,18.15-1.53,21.57,6.37,40,9,44.86,6.41,60.81-35.2,109-32,23.15,1.54,22,11.31,47.64,11.72,32.29.52,39.07-14.9,67.36-12.72,2.98.23,35.83,3.25,56,29,9.44,12.05,11.91,23.73,16,43,3.91,18.44,7.94,37.46,1,59-4.87,15.12-12.81,24.2-24,37-17.44,19.95-36.22,40.24-61,43-35.77,3.98-45.9-33.42-84-30-26.9,2.41-29.12,21.71-57,21-24.74-.63-32.43-16.07-55-12-18.59,3.36-17.77,14.63-35.05,17.85-25.94,4.83-35.46-19.12-66.95-19.85-23.98-.55-23.52,13.22-50.9,15.41-33.03,2.64-39.69-16.93-74.1-15.41-24.45,1.08-23.61,11.08-53.09,15.26-8.41,1.19-18.95,1.86-75.91-8.26-58.2-10.34-57.88-12.94-79-14-43.16-2.16-52.56,8.3-64-1-25.7-20.89.16-91.29,15-122,12.84-26.58,26.82-55.52,52-60Z"/>
</svg>