<?xml version="1.0" encoding="UTF-8"?>
<svg id="Calque_2" data-name="Calque 2" xmlns="http://www.w3.org/2000/svg" viewBox="0 0 121.95 76.28">
  <defs>
    <style>
      .cls-1 {
        fill: #fff;
      }
    </style>
  </defs>
  <g id="Calque_1-2" data-name="Calque 1">
    <path class="cls-1" d="M31.53,42.24h-6.84v-8.6h10.75c1.27,0,2.12-1.12,2.12-2.71s-.85-2.55-2.12-2.55h-10.75v-8.92h11.94c5.61,0,9.09,2.81,9.09,10.04,0,4.73-2.63,8.39-6.33,9.19,4.21.85,5.56,3.88,5.56,9.19v8.76h-8.16v-8.23c0-4.78-1.4-6.16-5.27-6.16h.01Z"/>
    <path class="cls-1" d="M23.71,0s-3.45,23.63-3.45,38.14,3.45,38.14,3.45,38.14h-6.91V0h6.91Z"/>
    <path class="cls-1" d="M45.94,0s3.45,23.63,3.45,38.14-3.45,38.14-3.45,38.14h6.91V0h-6.91Z"/>
    <path class="cls-1" d="M77.8,76.28h-6.78l-.92-13.35h-5.75l-.92,13.35h-6.57L62.4,0h9.75s5.65,76.28,5.65,76.28ZM66.72,28.75l-1.95,28.23h4.93l-1.85-28.23-.41-15.71h-.31l-.41,15.71Z"/>
    <path class="cls-1" d="M86.12,76.28h-6.26V0h8.21l3.9,42.81.31,8.32h.21l.21-8.32L96.6,0h8.21v76.28h-6.26v-32.54l1.23-29.15h-.21l-.62,6.57-3.9,42.4h-5.44l-3.9-42.4-.62-6.57h-.21l1.23,29.15v32.54h.01Z"/>
    <path class="cls-1" d="M121.95,76.28h-13.65V0h13.65v5.95h-6.98v28.03h5.95v5.85h-5.95v30.49h6.98v5.95h0Z"/>
    <path class="cls-1" d="M6.67,76.28H0V0h13.55v6.06h-6.88v29.77h5.95v5.95h-5.95v34.49h0Z"/>
  </g>
</svg>